<?xml version="1.0" encoding="UTF-8" standalone="no"?>
<!-- Created with Inkscape (http://www.inkscape.org/) -->

<svg
   xmlns:dc="http://purl.org/dc/elements/1.1/"
   xmlns:cc="http://creativecommons.org/ns#"
   xmlns:rdf="http://www.w3.org/1999/02/22-rdf-syntax-ns#"
   xmlns:svg="http://www.w3.org/2000/svg"
   xmlns="http://www.w3.org/2000/svg"
   xmlns:sodipodi="http://sodipodi.sourceforge.net/DTD/sodipodi-0.dtd"
   xmlns:inkscape="http://www.inkscape.org/namespaces/inkscape"
   id="svg2"
   version="1.1"
   inkscape:version="0.48.4 r9939"
   width="667.5"
   height="250"
   xml:space="preserve"
   sodipodi:docname="agro-white.svg"><metadata
     id="metadata8"><rdf:RDF><cc:Work
         rdf:about=""><dc:format>image/svg+xml</dc:format><dc:type
           rdf:resource="http://purl.org/dc/dcmitype/StillImage" /><dc:title /></cc:Work></rdf:RDF></metadata><defs
     id="defs6"><clipPath
       clipPathUnits="userSpaceOnUse"
       id="clipPath20"><path
         d="M 0,200 534,200 534,0 0,0 0,200 z"
         id="path22" /></clipPath><clipPath
       clipPathUnits="userSpaceOnUse"
       id="clipPath56"><path
         d="m 97.48,192.902 89.328,0 0,-151.485 -89.328,0 0,151.485 z"
         id="path58" /></clipPath><clipPath
       clipPathUnits="userSpaceOnUse"
       id="clipPath72"><path
         d="m 101.775,187.694 c -6.915,-9.134 -0.639,-26.306 11.087,-20.468 l 0,0 c -4.861,20.608 21.063,21.845 25.586,6.823 l 0,0 c 6.832,-22.69 -28.529,-63.903 5.117,-69.083 l 0,0 c 9.173,15.986 17.55,43.026 11.087,66.525 l 0,0 c 26.992,-28.995 -8.257,-65.803 -8.528,-97.228 l 0,0 C 146.001,60 155.822,46.505 166.001,42.834 l 0,0 c -1.249,0.741 -20.746,14.39 -2.834,52.333 l 0,0 c 16.122,-3.675 23.555,13.22 24.748,24.299 l 0,0 c 2.988,27.732 -15.946,66.011 -42.644,71.642 l 0,0 c -3.046,0.642 -8.494,0.805 -11.27,1.059 l 0,0 c -6.869,0.627 -13.009,2.153 -18.424,2.153 l 0,0 c -5.291,0 -9.89,-1.456 -13.802,-6.626"
         id="path74" /></clipPath><linearGradient
       x1="0"
       y1="0"
       x2="1"
       y2="0"
       gradientUnits="userSpaceOnUse"
       gradientTransform="matrix(89.328125,0,0,-89.328125,98.897461,118.57715)"
       spreadMethod="pad"
       id="linearGradient80"><stop
         style="stop-opacity:1;stop-color:#c4e112"
         offset="0"
         id="stop82" /><stop
         style="stop-opacity:1;stop-color:#78b922"
         offset="1"
         id="stop84" /></linearGradient><clipPath
       clipPathUnits="userSpaceOnUse"
       id="clipPath92"><path
         d="M 0,200 534,200 534,0 0,0 0,200 z"
         id="path94" /></clipPath><clipPath
       clipPathUnits="userSpaceOnUse"
       id="clipPath100"><path
         d="m 33.667,76.3486 159.417,0 0,-75.1943 -159.417,0 0,75.1943 z"
         id="path102" /></clipPath><clipPath
       clipPathUnits="userSpaceOnUse"
       id="clipPath116"><path
         d="m 35.085,71.25 c 1.252,0.735 22.629,11.194 47.17,-22.841 l 0,0 C 71.24,36.079 82.428,21.4 91.547,14.995 l 0,0 c 22.825,-16.031 65.487,-17.982 83.331,2.66 l 0,0 c 2.036,2.355 4.814,7.043 6.38,9.351 l 0,0 c 7.656,11.284 17.003,18.376 11.677,30.367 l 0,0 c -4.65,10.472 -22.714,13.287 -23.277,0.199 l 0,0 c 20.387,-5.716 8.927,-29.002 -6.409,-25.693 l 0,0 c -23.161,4.999 -42.122,55.885 -62.934,28.945 l 0,0 c 9.553,-15.763 29.163,-36.175 52.856,-41.889 l 0,0 C 114.736,9.342 99.577,57.998 72.206,73.439 l 0,0 c -5.296,2.988 -11.344,4.327 -17.171,4.327 l 0,0 c -7.841,0 -15.282,-2.425 -19.95,-6.516"
         id="path118" /></clipPath><linearGradient
       x1="0"
       y1="0"
       x2="1"
       y2="0"
       gradientUnits="userSpaceOnUse"
       gradientTransform="matrix(159.41699,0,0,-159.41699,35.084473,40.168945)"
       spreadMethod="pad"
       id="linearGradient124"><stop
         style="stop-opacity:1;stop-color:#c4e112"
         offset="0"
         id="stop126" /><stop
         style="stop-opacity:1;stop-color:#78b922"
         offset="1"
         id="stop128" /></linearGradient><clipPath
       clipPathUnits="userSpaceOnUse"
       id="clipPath136"><path
         d="M 0,200 534,200 534,0 0,0 0,200 z"
         id="path138" /></clipPath><clipPath
       clipPathUnits="userSpaceOnUse"
       id="clipPath144"><path
         d="m 6.87598,173.898 118.52602,0 0,-130.0074 -118.52602,0 0,130.0074 z"
         id="path146" /></clipPath><clipPath
       clipPathUnits="userSpaceOnUse"
       id="clipPath160"><path
         d="m 83.11,145.804 c -5.201,15.694 -23.504,13.31 -33.601,8.595 l 0,0 C 24.235,142.6 1.283,106.584 10.289,80.826 l 0,0 c 1.027,-2.938 3.707,-7.683 4.927,-10.19 l 0,0 c 5.968,-12.262 7.459,-23.9 20.509,-25.258 l 0,0 C 47.12,44.189 58.564,58.45 47.497,65.46 l 0,0 C 32.382,50.634 17.904,72.174 28.415,83.82 l 0,0 c 15.877,17.589 69.444,8.67 56.458,40.138 l 0,0 C 66.447,123.532 38.976,116.701 22.216,99.008 l 0,0 c 10.835,38.102 60.574,26.999 87.601,43.035 l 0,0 c 12.267,7.277 18.729,22.665 16.602,33.272 l 0,0 c 0.011,-1.449 -1.574,-25.197 -43.309,-29.511"
         id="path162" /></clipPath><linearGradient
       x1="0"
       y1="0"
       x2="1"
       y2="0"
       gradientUnits="userSpaceOnUse"
       gradientTransform="matrix(118.52588,0,0,-118.52588,8.293457,110.31152)"
       spreadMethod="pad"
       id="linearGradient168"><stop
         style="stop-opacity:1;stop-color:#c4e112"
         offset="0"
         id="stop170" /><stop
         style="stop-opacity:1;stop-color:#78b922"
         offset="1"
         id="stop172" /></linearGradient></defs><sodipodi:namedview
     pagecolor="#00ff48"
     bordercolor="#666666"
     borderopacity="1"
     objecttolerance="10"
     gridtolerance="10"
     guidetolerance="10"
     inkscape:pageopacity="0"
     inkscape:pageshadow="2"
     inkscape:window-width="1323"
     inkscape:window-height="747"
     id="namedview4"
     showgrid="false"
     inkscape:zoom="1.6539326"
     inkscape:cx="334.66777"
     inkscape:cy="146.12772"
     inkscape:window-x="43"
     inkscape:window-y="21"
     inkscape:window-maximized="1"
     inkscape:current-layer="g10"
     inkscape:showpageshadow="true"
     showborder="true"
     borderlayer="false" /><g
     id="g10"
     inkscape:groupmode="layer"
     inkscape:label="logo"
     transform="matrix(1.25,0,0,-1.25,0,250)"><g
       transform="matrix(1,0,0,-1,217.6978,68.0273)"
       style=""
       id="text12"><path
         d="m 44.481453,-82.192773 31.109042,71.72984 c 1.342759,3.1332921 2.704244,5.3340494 4.08446,6.6022786 1.380056,1.1936349 3.692717,1.7904505 6.937988,1.7904484 l 0,2.070206 -32.284024,0 0,-2.070206 c 5.52049,2.1e-6 8.280762,-1.846396 8.280824,-5.5391998 -6.2e-5,-1.1190216 -0.522276,-2.8908182 -1.566642,-5.3153942 l -5.93086,-13.596217 -31.724508,0 -7.049891,16.058084 -0.447612,1.5106909 -0.167855,1.6225939 c -1.5e-5,3.5062986 2.816208,5.2594443 8.448679,5.2594422 l 0,2.070206 -22.7163147,0 0,-2.070206 c 2.2753579,-0.2238038 4.1031055,-1.0071242 5.4832484,-2.3499636 1.4174299,-1.3428305 3.1332743,-4.2709568 5.1475393,-8.7843874 l 30.269769,-68.988216 2.126157,0 m -5.203491,19.359224 -13.987878,32.060217 27.975757,0 -13.987879,-32.060217"
         style="font-size:114.58869934px;font-style:normal;font-variant:normal;font-weight:normal;font-stretch:normal;writing-mode:lr-tb;fill:#ffffff;fill-opacity:1;fill-rule:nonzero;stroke:none;font-family:Times New Roman;-inkscape-font-specification:Times New Roman"
         id="path3074" /><path
         d="m 150.19221,-80.458276 2.07021,25.066278 -2.07021,0 c -1.79052,-6.564916 -5.52062,-11.675149 -11.1903,-15.330715 -5.66982,-3.655424 -11.65662,-5.483172 -17.96044,-5.483248 -8.84038,7.6e-5 -16.33787,3.263911 -22.492503,9.791515 -6.117388,6.527736 -9.176068,15.554571 -9.176049,27.080532 -1.9e-5,10.705418 3.301117,19.508448 9.903418,26.409114 6.639544,6.9006931 14.528704,10.351033 23.667494,10.3510304 0.70866,2.6e-6 1.39873,-0.018648 2.0702,-0.055951 0.70867,-0.037298 1.54794,-0.1305508 2.51782,-0.2797576 1.00707,-0.149201 1.65984,-0.2797544 1.9583,-0.3916606 l 2.23806,-0.7273697 c 3.09592,-0.9698212 5.9681,-2.4059086 8.61654,-4.3082665 l 0,-18.4639995 c -7e-5,-4.662595 -0.20523,-7.590721 -0.61547,-8.784387 -0.37308,-1.193596 -1.36155,-2.238023 -2.96543,-3.133285 -0.67148,-0.372971 -1.67861,-0.72733 -3.02138,-1.063079 l -1.90235,-0.335709 -2.34997,-0.111903 0,-2.014255 33.73877,0 0,2.014255 c -1.71594,4e-5 -3.09608,0.130594 -4.14042,0.39166 -1.00721,0.223846 -1.93974,0.634157 -2.79757,1.230934 -1.45483,0.895262 -2.406,2.163495 -2.85353,3.804703 -0.18659,0.746054 -0.33579,1.790481 -0.44761,3.133284 -0.11199,1.342867 -0.16794,2.965459 -0.16786,4.867782 l 0,20.2544479 c -6.97536,3.6928028 -12.77566,5.98681253 -17.40092,6.88203618 C 130.83293,1.268233 126.26356,1.7344952 121.71289,1.7344969 111.90269,1.7344952 103.64052,0 96.926373,-3.4689938 90.212171,-6.9379807 84.859481,-11.656554 80.868288,-17.624727 c -3.953913,-5.968138 -5.930865,-12.383905 -5.93086,-19.24732 -5e-6,-8.206177 2.275354,-15.946129 6.826085,-23.219878 4.588007,-7.310931 10.518862,-12.533067 17.792581,-15.666424 7.273656,-3.133206 14.155686,-4.699847 20.646106,-4.699927 3.58085,8e-5 7.03119,0.354439 10.35103,1.063079 3.31973,0.671496 6.58356,1.753225 9.79152,3.245187 1.60387,0.746096 2.92805,1.119106 3.97255,1.119031 2.01418,7.5e-5 3.26377,-1.809022 3.74876,-5.427297 l 2.12615,0"
         style="font-size:114.58869934px;font-style:normal;font-variant:normal;font-weight:normal;font-stretch:normal;writing-mode:lr-tb;fill:#ffffff;fill-opacity:1;fill-rule:nonzero;stroke:none;font-family:Times New Roman;-inkscape-font-specification:Times New Roman"
         id="path3076" /><path
         d="m 203.50595,-38.047029 17.79258,21.988945 c 4.14034,5.14755 7.51608,8.6911421 10.12722,10.6307872 2.64829,1.902355 5.68832,3.0213841 9.1201,3.3570908 l 0,2.070206 -20.53421,0 -29.7662,-36.927999 -1.90235,0.111903 -2.62973,0 -1.67854,0 -1.23093,-0.111903 0,21.653236 c -3e-5,4.588035 0.20512,7.4788599 0.61546,8.6724844 0.44759,1.1563367 1.47336,2.200764 3.07734,3.1332848 0.78329,0.3357122 1.79041,0.6714209 3.02138,1.0071272 l 1.9583,0.2797576 2.34996,0.111903 0,2.070206 -34.35423,0 0,-2.070206 c 2.90948,2.1e-6 5.25944,-0.4476096 7.0499,-1.3428363 1.41742,-0.6341131 2.46185,-1.6971908 3.13328,-3.1892363 0.4849,-1.7158381 0.72735,-4.6066634 0.72737,-8.6724844 l 0,-48.174253 c -2e-5,-4.401451 -0.18652,-7.143073 -0.55952,-8.224873 -0.33572,-1.23086 -1.26824,-2.331239 -2.79757,-3.301139 l -2.74163,-1.11903 -1.51069,-0.335709 -1.90235,-0.111903 -1.39879,-0.05595 0,-2.070206 36.08873,0 c 9.66091,7.9e-5 16.72945,2.070283 21.20562,6.210618 4.47606,4.10318 6.71412,8.859053 6.71419,14.267636 -7e-5,9.959418 -6.6583,16.673593 -19.97469,20.142545 m -20.70206,-34.578035 0,31.836411 c 17.68063,4.1e-5 26.52096,-5.669707 26.52101,-17.00926 -5e-5,-4.476059 -1.64129,-8.411312 -4.92373,-11.80577 -3.28253,-3.394318 -7.53485,-5.091513 -12.75695,-5.091587 -2.7976,7.4e-5 -5.74438,0.690142 -8.84033,2.070206"
         style="font-size:114.58869934px;font-style:normal;font-variant:normal;font-weight:normal;font-stretch:normal;writing-mode:lr-tb;fill:#ffffff;fill-opacity:1;fill-rule:nonzero;stroke:none;font-family:Times New Roman;-inkscape-font-specification:Times New Roman"
         id="path3078" /><path
         d="m 309.49109,-39.501768 c -8e-5,3.09602 -0.35444,6.210651 -1.06308,9.343902 -0.7088,3.133312 -1.79053,6.285244 -3.24519,9.455806 -2.83495,6.266584 -7.55352,11.6006229 -14.15573,16.0021329 -3.17065,2.0888591 -6.54639,3.6741504 -10.12722,4.75587861 -3.58095,1.11902909 -7.27375,1.67854369 -11.0784,1.67854539 -10.70543,-1.7e-6 -20.08662,-3.9539047 -28.14361,-11.8617209 -8.05703,-7.907796 -12.08554,-17.662 -12.08553,-29.262641 -1e-5,-11.190252 3.8793,-20.832554 11.63791,-28.926933 7.79589,-8.094242 17.21439,-12.141398 28.25552,-12.141478 10.96644,8e-5 20.36628,3.991284 28.19956,11.973624 7.87043,7.982476 11.80569,17.643428 11.80577,28.982884 m -14.15573,0.39166 c -7e-5,-10.593437 -2.23813,-19.377815 -6.71418,-26.353163 -4.43888,-6.975216 -10.85465,-10.462857 -19.24732,-10.462933 -8.28086,7.6e-5 -14.62203,3.394465 -19.02352,10.183176 -4.40154,6.788842 -6.6023,15.51727 -6.60228,26.185308 -2e-5,11.302234 2.3686,20.273118 7.10584,26.912678 4.7745,6.6395856 11.04107,9.959372 18.79971,9.9593694 7.57206,2.6e-6 13.74537,-3.2824829 18.51995,-9.8474664 4.77447,-6.564958 7.16173,-15.423939 7.1618,-26.576969"
         style="font-size:114.58869934px;font-style:normal;font-variant:normal;font-weight:normal;font-stretch:normal;writing-mode:lr-tb;fill:#ffffff;fill-opacity:1;fill-rule:nonzero;stroke:none;font-family:Times New Roman;-inkscape-font-specification:Times New Roman"
         id="path3080" /></g><g
       id="g16"><g
         id="g18"
         clip-path="url(#clipPath20)"><g
           id="g24"
           transform="translate(354.2017,31.5195)"
           style="fill:#ffffff"><path
             d="m 0,0 0,25.231 2.888,0 0,-3.429 1.064,-0.273 c 0.979,1.784 1.876,2.962 2.666,3.504 0.78,0.535 1.612,0.795 2.547,0.795 1.265,0 2.573,-0.376 3.897,-1.12 L 11.914,21.617 C 10.93,22.1 9.933,22.345 8.941,22.345 7.843,22.345 6.843,22.009 5.969,21.348 5.099,20.691 4.472,19.774 4.106,18.622 3.594,16.98 3.334,15.17 3.334,13.236 L 3.334,0 0,0 z"
             style="fill:#ffffff;fill-opacity:1;fill-rule:nonzero;stroke:none"
             id="path26" /></g><g
           id="g28"
           transform="translate(383.5747,54.8076)"
           style="fill:#ffffff"><path
             d="m 0,0 c -2.195,0 -4.07,-0.748 -5.573,-2.224 -1.495,-1.467 -2.333,-3.446 -2.49,-5.88 l -0.039,-0.603 15.948,0 -0.056,0.618 C 7.581,-5.765 6.97,-3.98 5.973,-2.786 4.444,-0.938 2.435,0 0,0 m 0.199,-23.884 c -3.677,0 -6.625,1.139 -8.762,3.386 -2.146,2.255 -3.233,5.485 -3.233,9.602 0,4.267 1.101,7.612 3.274,9.942 2.162,2.319 5.013,3.494 8.473,3.494 3.345,0 6.112,-1.15 8.225,-3.42 2.123,-2.279 3.199,-5.558 3.199,-9.742 0,-0.16 -0.003,-0.368 -0.009,-0.625 l -19.713,0 0.034,-0.6 c 0.174,-3.021 1.053,-5.381 2.616,-7.012 1.578,-1.65 3.57,-2.486 5.921,-2.486 1.755,0 3.28,0.473 4.534,1.404 1.154,0.858 2.092,2.188 2.791,3.96 l 3.513,-0.435 c -0.726,-2.264 -1.954,-4.061 -3.657,-5.349 -1.861,-1.406 -4.286,-2.119 -7.206,-2.119"
             style="fill:#ffffff;fill-opacity:1;fill-rule:nonzero;stroke:none"
             id="path30" /></g><g
           id="g32"
           transform="translate(410.0903,31.1719)"
           style="fill:#ffffff"><path
             d="m 0,0 c -1.514,0 -2.688,0.233 -3.491,0.694 -0.793,0.454 -1.333,1.03 -1.651,1.758 -0.227,0.523 -0.498,1.822 -0.498,5.05 l 0,15.736 -3.277,0 0,2.341 3.277,0 0,6.777 3.31,1.998 0,-8.775 4.493,0 0,-2.341 -4.493,0 0,-15.985 c 0,-1.819 0.161,-2.402 0.282,-2.683 0.204,-0.472 0.539,-0.852 0.997,-1.129 0.449,-0.272 1.045,-0.405 1.821,-0.405 0.403,0 0.902,0.036 1.49,0.108 L 2.728,0.279 C 1.723,0.094 0.808,0 0,0"
             style="fill:#ffffff;fill-opacity:1;fill-rule:nonzero;stroke:none"
             id="path34" /></g><g
           id="g36"
           transform="translate(419.7935,31.5195)"
           style="fill:#ffffff"><path
             d="m 0,0 0,25.231 2.888,0 0,-3.429 1.064,-0.273 c 0.979,1.784 1.876,2.962 2.666,3.504 0.78,0.535 1.612,0.795 2.547,0.795 1.265,0 2.573,-0.376 3.897,-1.12 L 11.914,21.617 C 10.93,22.1 9.933,22.345 8.941,22.345 7.843,22.345 6.843,22.009 5.969,21.348 5.099,20.691 4.472,19.774 4.106,18.622 3.594,16.98 3.334,15.17 3.334,13.236 L 3.334,0 0,0 z"
             style="fill:#ffffff;fill-opacity:1;fill-rule:nonzero;stroke:none"
             id="path38" /></g><g
           id="g40"
           transform="translate(454.9106,44.71)"><path
             d="m 0,0 c -1.569,-0.642 -3.979,-1.197 -7.164,-1.651 -1.905,-0.276 -3.228,-0.581 -4.044,-0.935 -0.862,-0.376 -1.539,-0.936 -2.013,-1.665 -0.471,-0.726 -0.712,-1.544 -0.712,-2.431 0,-1.357 0.521,-2.503 1.546,-3.405 1.003,-0.884 2.462,-1.333 4.334,-1.333 1.813,0 3.452,0.404 4.87,1.202 1.438,0.807 2.51,1.931 3.189,3.339 0.522,1.101 0.776,2.642 0.776,4.716 l 0,2.482 L 0,0 z m -9.12,-13.786 c -2.738,0 -4.858,0.664 -6.297,1.974 -1.446,1.316 -2.148,2.953 -2.148,5.005 0,1.189 0.272,2.287 0.811,3.265 0.54,0.984 1.257,1.782 2.13,2.374 0.895,0.607 1.921,1.074 3.05,1.389 0.843,0.222 2.153,0.442 3.887,0.653 3.632,0.434 6.354,0.96 8.088,1.566 l 0.37,0.129 0.01,0.391 c 0.018,0.621 0.026,1.016 0.026,1.183 0,1.981 -0.492,3.42 -1.458,4.273 -1.245,1.1 -3.084,1.657 -5.465,1.657 -2.245,0 -3.878,-0.398 -4.991,-1.216 -1.013,-0.745 -1.786,-2.002 -2.3,-3.738 l -3.263,0.444 c 0.384,1.505 0.959,2.75 1.713,3.703 0.84,1.061 2.083,1.893 3.695,2.474 1.652,0.596 3.601,0.898 5.791,0.898 2.17,0 3.95,-0.255 5.288,-0.758 1.307,-0.493 2.271,-1.109 2.866,-1.829 0.6,-0.73 1.029,-1.672 1.273,-2.801 0.139,-0.71 0.21,-2.06 0.21,-4.001 l 0,-5.959 c 0,-4.228 0.097,-6.838 0.294,-7.979 0.148,-0.856 0.406,-1.694 0.769,-2.501 l -3.387,0 c -0.349,0.793 -0.581,1.714 -0.692,2.745 L 1.036,-9.38 0.22,-10.074 c -1.599,-1.358 -3.151,-2.327 -4.613,-2.88 -1.46,-0.553 -3.05,-0.832 -4.727,-0.832"
             style="fill:#ffffff;fill-opacity:1;fill-rule:nonzero;stroke:none"
             id="path42" /></g><g
           id="g44"
           transform="translate(478.6118,54.7832)"
           style="fill:#ffffff"><path
             d="m 0,0 c -2.154,0 -3.977,-0.889 -5.417,-2.641 -1.411,-1.718 -2.127,-4.421 -2.127,-8.032 0,-3.5 0.765,-6.171 2.271,-7.939 1.53,-1.797 3.371,-2.708 5.471,-2.708 2.117,0 3.937,0.873 5.409,2.595 1.45,1.695 2.185,4.279 2.185,7.68 0,3.727 -0.746,6.522 -2.216,8.305 C 4.08,-0.922 2.204,0 0,0 m -0.224,-23.859 c -1.979,0 -3.825,0.552 -5.485,1.643 -1.667,1.096 -2.978,2.651 -3.895,4.62 -0.927,1.992 -1.398,4.321 -1.398,6.923 0,2.546 0.428,4.884 1.273,6.948 0.828,2.025 2.083,3.595 3.732,4.667 1.653,1.078 3.528,1.622 5.575,1.622 1.485,0 2.823,-0.315 3.976,-0.937 1.159,-0.625 2.114,-1.45 2.84,-2.452 l 1.026,-1.418 0,14.241 3.309,0 0,-35.262 -3.011,0 0,4.7 -1.045,-1.634 c -1.575,-2.464 -3.831,-3.661 -6.897,-3.661"
             style="fill:#ffffff;fill-opacity:1;fill-rule:nonzero;stroke:none"
             id="path46" /></g><g
           id="g48"
           transform="translate(509.8931,54.8076)"
           style="fill:#ffffff"><path
             d="m 0,0 c -2.195,0 -4.07,-0.748 -5.573,-2.224 -1.495,-1.467 -2.333,-3.446 -2.49,-5.88 l -0.039,-0.603 15.948,0 -0.056,0.618 C 7.581,-5.765 6.97,-3.98 5.973,-2.786 4.444,-0.938 2.435,0 0,0 m 0.199,-23.884 c -3.677,0 -6.625,1.139 -8.762,3.386 -2.146,2.255 -3.233,5.485 -3.233,9.602 0,4.267 1.101,7.612 3.274,9.942 2.162,2.319 5.013,3.494 8.473,3.494 3.345,0 6.112,-1.15 8.225,-3.42 2.123,-2.279 3.199,-5.558 3.199,-9.742 0,-0.16 -0.003,-0.368 -0.009,-0.625 l -19.713,0 0.034,-0.6 c 0.174,-3.021 1.053,-5.381 2.616,-7.012 1.578,-1.65 3.57,-2.486 5.921,-2.486 1.755,0 3.28,0.473 4.534,1.404 1.154,0.858 2.092,2.188 2.791,3.96 l 3.513,-0.435 c -0.726,-2.264 -1.954,-4.061 -3.657,-5.349 -1.861,-1.406 -4.286,-2.119 -7.206,-2.119"
             style="fill:#ffffff;fill-opacity:1;fill-rule:nonzero;stroke:none"
             id="path50" /></g><g
           id="g52"><g
             id="g54" /><g
             id="g60"><g
               clip-path="url(#clipPath56)"
               opacity="0.75"
               id="g62"><g
                 transform="translate(164.5835,41.417)"
                 id="g64"><path
                   d="m 0,0 c -10.18,3.671 -20,17.166 -19.877,31.429 0.271,31.425 35.521,68.233 8.529,97.228 6.462,-23.5 -1.915,-50.539 -11.088,-66.525 -33.647,5.18 1.715,46.393 -5.117,69.083 -4.523,15.022 -30.447,13.785 -25.586,-6.822 -11.727,-5.839 -18.002,11.333 -11.088,20.467 7.918,10.462 18.647,5.713 32.227,4.473 2.776,-0.254 8.225,-0.417 11.27,-1.06 C 5.969,142.644 24.902,104.363 21.915,76.632 20.721,65.553 13.288,48.658 -2.833,52.333 -20.745,14.39 -1.249,0.741 0,0"
                   style="fill:#2a3a1a;fill-opacity:1;fill-rule:evenodd;stroke:none"
                   id="path66" /></g></g></g></g></g></g><g
       id="g68"><g
         id="g70"
         clip-path="url(#clipPath72)"><g
           id="g76"><g
             id="g78"><path
               d="m 101.775,187.694 c -6.915,-9.134 -0.639,-26.306 11.087,-20.468 l 0,0 c -4.861,20.608 21.063,21.845 25.586,6.823 l 0,0 c 6.832,-22.69 -28.529,-63.903 5.117,-69.083 l 0,0 c 9.173,15.986 17.55,43.026 11.087,66.525 l 0,0 c 26.992,-28.995 -8.257,-65.803 -8.528,-97.228 l 0,0 C 146.001,60 155.822,46.505 166.001,42.834 l 0,0 c -1.249,0.741 -20.746,14.39 -2.834,52.333 l 0,0 c 16.122,-3.675 23.555,13.22 24.748,24.299 l 0,0 c 2.988,27.732 -15.946,66.011 -42.644,71.642 l 0,0 c -3.046,0.642 -8.494,0.805 -11.27,1.059 l 0,0 c -6.869,0.627 -13.009,2.153 -18.424,2.153 l 0,0 c -5.291,0 -9.89,-1.456 -13.802,-6.626"
               style="fill:url(#linearGradient80);stroke:none"
               id="path86" /></g></g></g></g><g
       id="g88"><g
         id="g90"
         clip-path="url(#clipPath92)"><g
           id="g96"><g
             id="g98" /><g
             id="g104"><g
               clip-path="url(#clipPath100)"
               opacity="0.75"
               id="g106"><g
                 transform="translate(33.667,69.833)"
                 id="g108"><path
                   d="m 0,0 c 8.138,7.132 24.699,9.198 37.122,2.189 27.371,-15.441 42.53,-64.097 80.964,-54.503 -23.692,5.713 -43.303,26.126 -52.856,41.888 20.812,26.941 39.773,-23.946 62.935,-28.945 15.336,-3.31 26.795,19.977 6.409,25.693 0.563,13.088 18.627,10.273 23.277,-0.199 5.325,-11.991 -4.022,-19.083 -11.678,-30.367 -1.565,-2.308 -4.344,-6.996 -6.38,-9.351 -17.844,-20.642 -60.506,-18.691 -83.331,-2.66 -9.118,6.405 -20.307,21.084 -9.292,33.414 C 22.63,11.193 1.252,0.734 0,0"
                   style="fill:#2a3a1a;fill-opacity:1;fill-rule:evenodd;stroke:none"
                   id="path110" /></g></g></g></g></g></g><g
       id="g112"><g
         id="g114"
         clip-path="url(#clipPath116)"><g
           id="g120"><g
             id="g122"><path
               d="m 35.085,71.25 c 1.252,0.735 22.629,11.194 47.17,-22.841 l 0,0 C 71.24,36.079 82.428,21.4 91.547,14.995 l 0,0 c 22.825,-16.031 65.487,-17.982 83.331,2.66 l 0,0 c 2.036,2.355 4.814,7.043 6.38,9.351 l 0,0 c 7.656,11.284 17.003,18.376 11.677,30.367 l 0,0 c -4.65,10.472 -22.714,13.287 -23.277,0.199 l 0,0 c 20.387,-5.716 8.927,-29.002 -6.409,-25.693 l 0,0 c -23.161,4.999 -42.122,55.885 -62.934,28.945 l 0,0 c 9.553,-15.763 29.163,-36.175 52.856,-41.889 l 0,0 C 114.736,9.342 99.577,57.998 72.206,73.439 l 0,0 c -5.296,2.988 -11.344,4.327 -17.171,4.327 l 0,0 c -7.841,0 -15.282,-2.425 -19.95,-6.516"
               style="fill:url(#linearGradient124);stroke:none"
               id="path130" /></g></g></g></g><g
       id="g132"><g
         id="g134"
         clip-path="url(#clipPath136)"><g
           id="g140"><g
             id="g142" /><g
             id="g148"><g
               clip-path="url(#clipPath144)"
               opacity="0.75"
               id="g150"><g
                 transform="translate(125.001,173.8984)"
                 id="g152"><path
                   d="m 0,0 c 2.128,-10.607 -4.334,-25.995 -16.601,-33.272 -27.027,-16.037 -76.767,-4.933 -87.602,-43.036 16.761,17.694 44.231,24.525 62.657,24.951 12.986,-31.468 -40.581,-22.549 -56.457,-40.139 -10.512,-11.646 3.966,-33.186 19.082,-18.359 11.066,-7.011 -0.377,-21.271 -11.772,-20.083 -13.051,1.359 -14.541,12.997 -20.509,25.258 -1.22,2.507 -3.901,7.252 -4.927,10.191 -9.006,25.758 13.946,61.773 39.22,73.572 10.097,4.715 28.399,7.1 33.6,-8.595 C -1.573,-25.197 0.012,-1.45 0,0"
                   style="fill:#2a3a1a;fill-opacity:1;fill-rule:evenodd;stroke:none"
                   id="path154" /></g></g></g></g></g></g><g
       id="g156"><g
         id="g158"
         clip-path="url(#clipPath160)"><g
           id="g164"><g
             id="g166"><path
               d="m 83.11,145.804 c -5.201,15.694 -23.504,13.31 -33.601,8.595 l 0,0 C 24.235,142.6 1.283,106.584 10.289,80.826 l 0,0 c 1.027,-2.938 3.707,-7.683 4.927,-10.19 l 0,0 c 5.968,-12.262 7.459,-23.9 20.509,-25.258 l 0,0 C 47.12,44.189 58.564,58.45 47.497,65.46 l 0,0 C 32.382,50.634 17.904,72.174 28.415,83.82 l 0,0 c 15.877,17.589 69.444,8.67 56.458,40.138 l 0,0 C 66.447,123.532 38.976,116.701 22.216,99.008 l 0,0 c 10.835,38.102 60.574,26.999 87.601,43.035 l 0,0 c 12.267,7.277 18.729,22.665 16.602,33.272 l 0,0 c 0.011,-1.449 -1.574,-25.197 -43.309,-29.511"
               style="fill:url(#linearGradient168);stroke:none"
               id="path174" /></g></g></g></g></g></svg>