<?xml version="1.0" encoding="UTF-8" standalone="no"?>
<!-- Created with Inkscape (http://www.inkscape.org/) -->

<svg
   xmlns:dc="http://purl.org/dc/elements/1.1/"
   xmlns:cc="http://creativecommons.org/ns#"
   xmlns:rdf="http://www.w3.org/1999/02/22-rdf-syntax-ns#"
   xmlns:svg="http://www.w3.org/2000/svg"
   xmlns="http://www.w3.org/2000/svg"
   xmlns:xlink="http://www.w3.org/1999/xlink"
   xmlns:sodipodi="http://sodipodi.sourceforge.net/DTD/sodipodi-0.dtd"
   xmlns:inkscape="http://www.inkscape.org/namespaces/inkscape"
   width="232.76041"
   height="239.68582"
   id="svg3100"
   version="1.1"
   inkscape:version="0.48.4 r9939"
   sodipodi:docname="New document 2">
  <defs
     id="defs3102">
    <clipPath
       clipPathUnits="userSpaceOnUse"
       id="clipPath116">
      <path
         inkscape:connector-curvature="0"
         d="m 35.085,71.25 c 1.252,0.735 22.629,11.194 47.17,-22.841 l 0,0 C 71.24,36.079 82.428,21.4 91.547,14.995 l 0,0 c 22.825,-16.031 65.487,-17.982 83.331,2.66 l 0,0 c 2.036,2.355 4.814,7.043 6.38,9.351 l 0,0 c 7.656,11.284 17.003,18.376 11.677,30.367 l 0,0 c -4.65,10.472 -22.714,13.287 -23.277,0.199 l 0,0 c 20.387,-5.716 8.927,-29.002 -6.409,-25.693 l 0,0 c -23.161,4.999 -42.122,55.885 -62.934,28.945 l 0,0 c 9.553,-15.763 29.163,-36.175 52.856,-41.889 l 0,0 C 114.736,9.342 99.577,57.998 72.206,73.439 l 0,0 c -5.296,2.988 -11.344,4.327 -17.171,4.327 l 0,0 c -7.841,0 -15.282,-2.425 -19.95,-6.516"
         id="path118" />
    </clipPath>
    <linearGradient
       x1="0"
       y1="0"
       x2="1"
       y2="0"
       gradientUnits="userSpaceOnUse"
       gradientTransform="matrix(159.41699,0,0,-159.41699,35.084473,40.168945)"
       spreadMethod="pad"
       id="linearGradient124">
      <stop
         style="stop-opacity:1;stop-color:#c4e112"
         offset="0"
         id="stop126" />
      <stop
         style="stop-opacity:1;stop-color:#78b922"
         offset="1"
         id="stop128" />
    </linearGradient>
    <clipPath
       clipPathUnits="userSpaceOnUse"
       id="clipPath160">
      <path
         inkscape:connector-curvature="0"
         d="m 83.11,145.804 c -5.201,15.694 -23.504,13.31 -33.601,8.595 l 0,0 C 24.235,142.6 1.283,106.584 10.289,80.826 l 0,0 c 1.027,-2.938 3.707,-7.683 4.927,-10.19 l 0,0 c 5.968,-12.262 7.459,-23.9 20.509,-25.258 l 0,0 C 47.12,44.189 58.564,58.45 47.497,65.46 l 0,0 C 32.382,50.634 17.904,72.174 28.415,83.82 l 0,0 c 15.877,17.589 69.444,8.67 56.458,40.138 l 0,0 C 66.447,123.532 38.976,116.701 22.216,99.008 l 0,0 c 10.835,38.102 60.574,26.999 87.601,43.035 l 0,0 c 12.267,7.277 18.729,22.665 16.602,33.272 l 0,0 c 0.011,-1.449 -1.574,-25.197 -43.309,-29.511"
         id="path162" />
    </clipPath>
    <linearGradient
       x1="0"
       y1="0"
       x2="1"
       y2="0"
       gradientUnits="userSpaceOnUse"
       gradientTransform="matrix(118.52588,0,0,-118.52588,8.293457,110.31152)"
       spreadMethod="pad"
       id="linearGradient168">
      <stop
         style="stop-opacity:1;stop-color:#c4e112"
         offset="0"
         id="stop170" />
      <stop
         style="stop-opacity:1;stop-color:#78b922"
         offset="1"
         id="stop172" />
    </linearGradient>
    <linearGradient
       x1="0"
       y1="0"
       x2="1"
       y2="0"
       gradientUnits="userSpaceOnUse"
       gradientTransform="matrix(89.328125,0,0,-89.328125,98.897461,118.57715)"
       spreadMethod="pad"
       id="linearGradient80">
      <stop
         style="stop-opacity:1;stop-color:#c4e112"
         offset="0"
         id="stop82" />
      <stop
         style="stop-opacity:1;stop-color:#78b922"
         offset="1"
         id="stop84" />
    </linearGradient>
    <linearGradient
       y2="0"
       x2="1"
       y1="0"
       x1="0"
       spreadMethod="pad"
       gradientTransform="matrix(111.66016,0,0,111.66016,454.01792,264.34069)"
       gradientUnits="userSpaceOnUse"
       id="linearGradient3098"
       xlink:href="#linearGradient80"
       inkscape:collect="always" />
  </defs>
  <sodipodi:namedview
     id="base"
     pagecolor="#ffffff"
     bordercolor="#666666"
     borderopacity="1.0"
     inkscape:pageopacity="0.0"
     inkscape:pageshadow="2"
     inkscape:zoom="1.4"
     inkscape:cx="133.45595"
     inkscape:cy="127.26695"
     inkscape:document-units="px"
     inkscape:current-layer="layer1"
     showgrid="false"
     fit-margin-top="0"
     fit-margin-left="0"
     fit-margin-right="0"
     fit-margin-bottom="0"
     inkscape:window-width="1323"
     inkscape:window-height="747"
     inkscape:window-x="43"
     inkscape:window-y="21"
     inkscape:window-maximized="1" />
  <metadata
     id="metadata3105">
    <rdf:RDF>
      <cc:Work
         rdf:about="">
        <dc:format>image/svg+xml</dc:format>
        <dc:type
           rdf:resource="http://purl.org/dc/dcmitype/StillImage" />
        <dc:title></dc:title>
      </cc:Work>
    </rdf:RDF>
  </metadata>
  <g
     inkscape:label="Layer 1"
     inkscape:groupmode="layer"
     id="layer1"
     transform="translate(-340.76266,-169.66213)">
    <path
       inkscape:connector-curvature="0"
       d="m 457.61484,177.94463 c -8.64375,11.4175 -0.79875,32.8825 13.85875,25.585 l 0,0 c -6.07625,-25.76 26.32875,-27.30625 31.9825,-8.52875 l 0,0 c 8.54,28.3625 -35.66125,79.87875 6.39625,86.35375 l 0,0 c 11.46625,-19.9825 21.9375,-53.7825 13.85875,-83.15625 l 0,0 c 33.74,36.24375 -10.32125,82.25375 -10.66,121.535 l 0,0 c -0.15375,17.82875 12.1225,34.6975 24.84625,39.28625 l 0,0 c -1.56125,-0.92625 -25.9325,-17.9875 -3.5425,-65.41625 l 0,0 c 20.1525,4.59375 29.44375,-16.525 30.935,-30.37375 l 0,0 c 3.735,-34.665 -19.9325,-82.51375 -53.305,-89.5525 l 0,0 c -3.8075,-0.8025 -10.6175,-1.00625 -14.0875,-1.32375 l 0,0 c -8.58625,-0.78375 -16.26125,-2.69125 -23.03,-2.69125 l 0,0 c -6.61375,0 -12.3625,1.82 -17.2525,8.2825"
       style="fill:url(#linearGradient3098);stroke:none"
       id="path86" />
    <g
       transform="matrix(1.25,0,0,-1.25,330.3961,412.56213)"
       id="g112">
      <g
         id="g114"
         clip-path="url(#clipPath116)">
        <g
           id="g120">
          <g
             id="g122">
            <path
               inkscape:connector-curvature="0"
               d="m 35.085,71.25 c 1.252,0.735 22.629,11.194 47.17,-22.841 l 0,0 C 71.24,36.079 82.428,21.4 91.547,14.995 l 0,0 c 22.825,-16.031 65.487,-17.982 83.331,2.66 l 0,0 c 2.036,2.355 4.814,7.043 6.38,9.351 l 0,0 c 7.656,11.284 17.003,18.376 11.677,30.367 l 0,0 c -4.65,10.472 -22.714,13.287 -23.277,0.199 l 0,0 c 20.387,-5.716 8.927,-29.002 -6.409,-25.693 l 0,0 c -23.161,4.999 -42.122,55.885 -62.934,28.945 l 0,0 c 9.553,-15.763 29.163,-36.175 52.856,-41.889 l 0,0 C 114.736,9.342 99.577,57.998 72.206,73.439 l 0,0 c -5.296,2.988 -11.344,4.327 -17.171,4.327 l 0,0 c -7.841,0 -15.282,-2.425 -19.95,-6.516"
               style="fill:url(#linearGradient124);stroke:none"
               id="path130" />
          </g>
        </g>
      </g>
    </g>
    <g
       transform="matrix(1.25,0,0,-1.25,330.3961,412.56213)"
       id="g156">
      <g
         id="g158"
         clip-path="url(#clipPath160)">
        <g
           id="g164">
          <g
             id="g166">
            <path
               inkscape:connector-curvature="0"
               d="m 83.11,145.804 c -5.201,15.694 -23.504,13.31 -33.601,8.595 l 0,0 C 24.235,142.6 1.283,106.584 10.289,80.826 l 0,0 c 1.027,-2.938 3.707,-7.683 4.927,-10.19 l 0,0 c 5.968,-12.262 7.459,-23.9 20.509,-25.258 l 0,0 C 47.12,44.189 58.564,58.45 47.497,65.46 l 0,0 C 32.382,50.634 17.904,72.174 28.415,83.82 l 0,0 c 15.877,17.589 69.444,8.67 56.458,40.138 l 0,0 C 66.447,123.532 38.976,116.701 22.216,99.008 l 0,0 c 10.835,38.102 60.574,26.999 87.601,43.035 l 0,0 c 12.267,7.277 18.729,22.665 16.602,33.272 l 0,0 c 0.011,-1.449 -1.574,-25.197 -43.309,-29.511"
               style="fill:url(#linearGradient168);stroke:none"
               id="path174" />
          </g>
        </g>
      </g>
    </g>
  </g>
</svg>
